<svg xmlns="http://www.w3.org/2000/svg" xmlns:xlink="http://www.w3.org/1999/xlink" width="3057" height="182" viewBox="0 0 3057 182">
    <defs>
        <path id="57pcy9365a" d="M9.33.318C4.25.326.14 4.442.143 9.518c0 5.077 4.124 9.185 9.201 9.178 5.071 0 9.18-4.117 9.18-9.193C18.522 4.429 14.41.318 9.337.318H9.33z"/>
        <path id="qn4kh1zz5c" d="M9.39.433C4.31.441.202 4.557.21 9.633c0 5.078 4.124 9.186 9.198 9.18 5.072-.002 9.18-4.12 9.18-9.195C18.585 4.547 14.474.433 9.4.433h-.01z"/>
        <path id="uabknmz7de" d="M0 182L3057.001 182 3057.001 0.153 0 0.153z"/>
        <path id="m76ngwb3ug" d="M.113 15.084c10.925 2.34 12.844 4.237 15.214 15.025 2.372-10.788 4.29-12.684 15.211-15.025-10.922-2.34-12.839-4.24-15.211-15.027-2.37 10.788-4.29 12.687-15.214 15.027z"/>
        <path id="23b0cuzvli" d="M.113 15.084c10.925 2.34 12.844 4.237 15.214 15.025 2.372-10.788 4.29-12.684 15.211-15.025-10.922-2.34-12.839-4.24-15.211-15.027-2.37 10.788-4.29 12.687-15.214 15.027z"/>
    </defs>
    <g fill="none" fill-rule="evenodd" opacity=".1">
        <g stroke="#FFF" stroke-linecap="round" stroke-linejoin="round" stroke-width="4">
            <path d="M310.323 19.858c-19.388 0-35.11 36.64-35.11 81.84h70.221c0-45.2-15.721-81.84-35.111-81.84zM374.783 149.596c11.235 0 29.349-21.444 29.349-47.898h-58.7c0 26.454 18.403 47.898 29.351 47.898zM276.858 101.698L424.978 101.698M418.41 94.989L424.979 101.698 418.41 108.407M268.647 7.099L275.216.39 281.781 7.099M275.214.389L275.214 156.782M59.433 141.636L59.433 37.608 18.563 64.249 18.563 141.636" transform="translate(1577 11)"/>
            <path d="M100.299 143.749L100.299 64.249 59.432 37.608 59.432 143.749zM27.126 64.248c0 4.483-3.832 8.117-8.561 8.117-4.73 0-8.562-3.634-8.562-8.117 0-4.483 3.833-8.117 8.562-8.117 4.729 0 8.561 3.634 8.561 8.117z" transform="translate(1577 11)"/>
            <path d="M141.168 143.749L141.168 21.538 100.298 64.249 100.298 143.749zM67.995 37.607c0 4.484-3.835 8.117-8.561 8.117-4.732 0-8.565-3.633-8.565-8.117 0-4.483 3.833-8.117 8.565-8.117 4.726 0 8.561 3.634 8.561 8.117z" transform="translate(1577 11)"/>
            <path d="M108.862 64.248c0 4.483-3.833 8.117-8.562 8.117-4.73 0-8.562-3.634-8.562-8.117 0-4.483 3.833-8.117 8.562-8.117 4.729 0 8.562 3.634 8.562 8.117zM149.73 21.54c0 4.482-3.835 8.116-8.561 8.116-4.732 0-8.565-3.634-8.565-8.117 0-4.483 3.833-8.117 8.565-8.117 4.726 0 8.561 3.634 8.561 8.117zM.28 143.749L156.61 143.749M641.262 55.904L583.303 55.904 612.284 5.684zM668.002 102.223L556.562 102.223 575.668 69.138 648.901 69.138zM695.66 150.147L528.908 150.147 548.928 115.457 675.639 115.457zM881.035.379L796.424 146.99 965.646 146.99z" transform="translate(1577 11)"/>
            <path stroke-dasharray="1 4" d="M881.035 43.196l-47.545 82.383h95.09l-47.545-82.383z" transform="translate(1577 11)"/>
            <path d="M881.035.379L881.035 98.768 796.424 146.99M965.645 146.989L881.034 98.767" transform="translate(1577 11)"/>
            <path d="M891.594 43.196c0 5.833-4.726 10.564-10.56 10.564-5.83 0-10.557-4.73-10.557-10.564 0-5.833 4.726-10.562 10.557-10.562 5.834 0 10.56 4.729 10.56 10.562zM806.984 145.741c0 5.834-4.726 10.565-10.56 10.565-5.831 0-10.557-4.731-10.557-10.565 0-5.833 4.726-10.561 10.557-10.561 5.834 0 10.56 4.728 10.56 10.561zM935.448 122.878c0 5.833-4.727 10.562-10.56 10.562-5.829 0-10.555-4.729-10.555-10.562 0-5.834 4.726-10.564 10.555-10.564 5.833 0 10.56 4.73 10.56 10.564zM1115.441 13.059s17.934 7.973 17.934 29.902" transform="translate(1577 11)"/>
        </g>
        <g transform="translate(2684 14)">
            <mask id="x85k8kh0rb" fill="#fff">
                <use xlink:href="#57pcy9365a"/>
            </mask>
            <path stroke="#FFF" stroke-linecap="round" stroke-linejoin="round" stroke-width="4" d="M-9.888 28.733L28.563 28.733 28.563 -9.72 -9.888 -9.72z" mask="url(#x85k8kh0rb)"/>
        </g>
        <g stroke="#FFF" stroke-linecap="round" stroke-linejoin="round" stroke-width="4">
            <path d="M18.318 9.422c0 5.038-4.06 9.128-9.078 9.128C4.22 18.558.145 14.48.145 9.438.137 4.396 4.202.309 9.225.302c5.023-.003 9.09 4.079 9.093 9.12" transform="translate(2684 14)"/>
            <path d="M18.318 9.422c0 5.038-4.06 9.128-9.078 9.128C4.22 18.558.145 14.48.145 9.438.137 4.396 4.202.309 9.225.302c5.023-.003 9.09 4.079 9.093 9.12zM38.86 60.572c4.026-11.43 12.512-22.057 22.939-28.135 10.383-6.053 23.43-7.416 35.081-4.864 7.411 1.624 14.505 5.593 18.38 12.334 3.96 6.886 4.956 15.277 4.808 23.104-.184 9.7-5.246 18.817-12.986 24.59-9.527 7.104-21.215 14.665-33.496 14.665 0 0 23.821 13.956 23.821 31.897 0 0 0 7.973-3.971 13.953 0 0-5.955 7.976-13.895 7.976 0 0-21.267 4.428-34.459-21.71M54.67 9.452s-17.866 7.974-17.866 29.903" transform="translate(2684 14)"/>
            <path d="M45.42 9.422c0 5.038 4.06 9.128 9.078 9.128 5.02.008 9.096-4.071 9.096-9.112C63.6 4.396 59.537.309 54.516.302c-5.025-.003-9.093 4.079-9.095 9.12" transform="translate(2684 14)"/>
        </g>
        <g transform="translate(2730 16)">
            <mask id="wt8jzqi9gd" fill="#fff">
                <use xlink:href="#qn4kh1zz5c"/>
            </mask>
            <path stroke="#FFF" stroke-linecap="round" stroke-linejoin="round" stroke-width="4" d="M-56.002 69.001L-17.548 69.001 -17.548 30.547 -56.002 30.547z" mask="url(#wt8jzqi9gd)"/>
        </g>
        <path stroke="#FFF" stroke-linecap="round" stroke-linejoin="round" stroke-width="4" d="M2748.522 26.117c0 5.026-4.076 9.105-9.112 9.105-5.04.008-9.13-4.061-9.13-9.09-.008-5.028 4.072-9.105 9.114-9.112 5.042-.003 9.125 4.069 9.128 9.097"/>
        <path stroke="#FFF" stroke-linecap="round" stroke-linejoin="round" stroke-width="4" d="M2748.522 26.117c0 5.026-4.076 9.105-9.112 9.105-5.04.008-9.13-4.061-9.13-9.09-.008-5.028 4.072-9.105 9.114-9.112 5.042-.003 9.125 4.069 9.128 9.097zM2708.676 75.414c-4.04-11.4-12.559-22-23.025-28.064-10.423-6.037-23.519-7.397-35.215-4.852-7.44 1.62-14.56 5.58-18.45 12.303-3.974 6.87-4.975 15.24-4.824 23.047.183 9.674 5.264 18.77 13.034 24.528 9.562 7.085 21.295 14.628 33.622 14.628 0 0-23.911 13.92-23.911 31.816 0 0 0 7.954 3.986 13.918 0 0 5.978 7.956 13.948 7.956 0 0 21.348 4.417 34.59-21.655"/>
        <path stroke="#FFF" stroke-linecap="round" stroke-linejoin="round" stroke-width="4" d="M2715.809 162.797h0c-7.705 0-13.95-6.957-13.95-15.54V64.996c0-8.583 6.245-15.54 13.95-15.54 7.702 0 13.95 6.957 13.95 15.54v82.261c0 8.583-6.248 15.54-13.95 15.54zM3051.789 131.734L3051.789 50.786 2981.534 10.312 2911.278 50.786 2911.278 131.734 2981.534 172.209z"/>
        <path stroke="#FFF" stroke-linecap="round" stroke-linejoin="round" stroke-width="4" d="M3031.183 119.863L3031.183 62.658 2981.533 34.058 2931.888 62.658 2931.888 119.863 2981.533 148.463z"/>
        <path stroke="#FFF" stroke-linecap="round" stroke-linejoin="round" stroke-width="4" d="M3007.951 106.478L3007.951 76.043 2981.533 60.822 2955.12 76.043 2955.12 106.478 2981.533 121.699z"/>
        <path stroke="#FFF" stroke-linecap="round" stroke-linejoin="round" stroke-width="4" d="M2931.887 60.824L2911.279 131.879 2981.97 121.697 3031.182 119.682 3007.95 76.044 2981.535 34.057z"/>
        <path stroke="#FFF" stroke-linecap="round" stroke-linejoin="round" stroke-width="4" d="M3015.962 76.043c0 4.415-3.588 7.992-8.01 7.992-4.424 0-8.01-3.577-8.01-7.992s3.586-7.993 8.01-7.993c4.422 0 8.01 3.578 8.01 7.993zM2919.29 131.88c0 4.414-3.586 7.992-8.01 7.992-4.422 0-8.01-3.578-8.01-7.993 0-4.415 3.588-7.992 8.01-7.992 4.424 0 8.01 3.577 8.01 7.992zM2989.98 121.698c0 4.414-3.589 7.992-8.01 7.992-4.425 0-8.01-3.578-8.01-7.992 0-4.415 3.585-7.993 8.01-7.993 4.421 0 8.01 3.578 8.01 7.993zM2989.544 34.057c0 4.415-3.585 7.992-8.01 7.992-4.421 0-8.01-3.577-8.01-7.992s3.589-7.993 8.01-7.993c4.425 0 8.01 3.578 8.01 7.993zM3039.194 119.683c0 4.415-3.588 7.992-8.01 7.992-4.424 0-8.01-3.577-8.01-7.992s3.586-7.992 8.01-7.992c4.422 0 8.01 3.577 8.01 7.992zM2939.898 60.824c0 4.414-3.586 7.992-8.01 7.992-4.422 0-8.01-3.578-8.01-7.992 0-4.415 3.588-7.993 8.01-7.993 4.424 0 8.01 3.578 8.01 7.993zM94.68 37.681c5.43-6.69 5.608-24.34 5.608-24.34H63.033s.18 17.65 5.607 24.34c-20.006 7.837-34.668 32.68-34.668 56.132 0 28.311 21.353 38.922 47.688 38.922s47.689-10.61 47.689-38.922c0-23.452-14.662-48.295-34.668-56.132z"/>
        <path stroke="#FFF" stroke-linecap="round" stroke-linejoin="round" stroke-width="4" d="M144.966 93.91l-1.759-18.64c-.278-2.953 1.733-5.633 4.651-6.195 3.101-.598 6.105 1.399 6.746 4.482l4.339 20.806-5.027 28.592-22.145 28.405h-25.498"/>
        <path stroke="#FFF" stroke-linecap="round" stroke-linejoin="round" stroke-width="4" d="M106.274 153.56l.075-22.753c.013-3.74 1.27-7.371 3.57-10.325l.868-1.113c4.1-5.254 9.794-9.043 16.233-10.795l10.417-13.359c1.918-2.46 5.472-2.904 7.937-.99 2.462 1.913 2.908 5.46.99 7.92l-13.51 17.326"/>
        <path stroke="#FFF" stroke-linecap="round" stroke-linejoin="round" stroke-width="4" d="M137.872 151.374L137.835 165.736 100.825 165.645 100.862 151.283zM19.189 93.91l1.759-18.64c.278-2.953-1.736-5.633-4.651-6.195-3.101-.598-6.105 1.399-6.746 4.482L5.212 94.363l5.024 28.592 22.148 28.405H57.88"/>
        <path stroke="#FFF" stroke-linecap="round" stroke-linejoin="round" stroke-width="4" d="M57.879 153.56l-.073-22.753c-.013-3.74-1.27-7.371-3.57-10.325l-.868-1.113c-4.1-5.254-9.794-9.043-16.235-10.795L26.718 95.215c-1.918-2.46-5.472-2.904-7.937-.99-2.465 1.913-2.908 5.46-.99 7.92l13.51 17.326"/>
        <path stroke="#FFF" stroke-linecap="round" stroke-linejoin="round" stroke-width="4" d="M26.283 151.374L26.32 165.736 63.33 165.645 63.293 151.283zM68.441 97.943h19.253c3.645 0 6.6-2.948 6.6-6.585 0-3.635-2.955-6.584-6.6-6.584H75.041c-3.645 0-6.6-2.948-6.6-6.585 0-3.638 2.955-6.584 6.6-6.584h19.253M81.368 65.883L81.368 103.666M404.515 41.788l-7.303 15.387-106.346-.608c-6.923-.04-12.994 5.249-13.242 12.155-.255 7.144 5.454 13.041 12.567 13.08l110.314.632c2.994.016 5.717-1.737 6.937-4.467l16.09-36.07-19.017-.109z"/>
        <path stroke="#FFF" stroke-linecap="round" stroke-linejoin="round" stroke-width="4" d="M322.907 56.751L361.201 10.78 378.503 8.578 364.107 56.985zM290.326 101.164c-2.486 11.36-1.68 23.564 3.044 35.147 12.431 30.511 47.302 45.188 77.882 32.78 30.577-12.406 45.285-47.2 32.851-77.713"/>
        <path stroke="#FFF" stroke-linecap="round" stroke-linejoin="round" stroke-width="4" d="M384.808 99.208c-8.098-19.88-30.82-29.442-50.742-21.356-19.923 8.083-29.506 30.75-21.403 50.63 8.101 19.879 30.82 29.442 50.742 21.358 19.923-8.083 29.504-30.752 21.403-50.632zM284.601 96.295L292.728 91.041 297.996 99.15"/>
        <path stroke="#FFF" stroke-linecap="round" stroke-linejoin="round" stroke-width="4" d="M335.233 129.404h20.639c3.905 0 7.074-3.16 7.074-7.06 0-3.897-3.169-7.056-7.074-7.056h-13.565c-3.906 0-7.074-3.161-7.074-7.059 0-3.9 3.168-7.059 7.074-7.059h20.639M349.087 95.038L349.087 135.538M663.508 93.194c0 27.31-22.19 49.452-49.56 49.452-27.366 0-49.555-22.141-49.555-49.452 0-27.31 22.189-49.452 49.556-49.452 27.37 0 49.559 22.142 49.559 49.452zM613.95 41.962L613.95 21.173M613.95 165.217L613.95 144.427M621.548 169.219c0 4.186-3.403 7.581-7.598 7.581s-7.598-3.395-7.598-7.581 3.403-7.582 7.598-7.582 7.598 3.396 7.598 7.582z"/>
        <path stroke="#FFF" stroke-linecap="round" stroke-linejoin="round" stroke-width="4" d="M597.55 67.55c-.922 0-1.818-.475-2.316-1.328-.745-1.276-.313-2.912.967-3.655 2.78-1.615 5.758-2.86 8.859-3.695 1.425-.39 2.897.455 3.288 1.882.383 1.425-.461 2.892-1.889 3.276-2.645.715-5.188 1.779-7.562 3.157-.424.247-.888.364-1.347.364zm41.172 5.279c-.683 0-1.368-.258-1.89-.778-1.948-1.931-4.145-3.6-6.524-4.963-1.282-.733-1.725-2.369-.99-3.65.74-1.28 2.376-1.719 3.658-.986 2.783 1.591 5.352 3.547 7.632 5.809 1.05 1.04 1.058 2.732.013 3.78-.523.525-1.211.788-1.9.788zm-58.15 24.286c-1.48 0-2.676-1.255-2.676-2.732v-.102c.005-3.18.414-6.338 1.225-9.388.378-1.425 1.842-2.27 3.275-1.9 1.428.376 2.283 1.84 1.902 3.267-.693 2.613-1.042 5.323-1.042 8.053 0 .062-.003.127-.008.19 0 1.476-1.196 2.612-2.676 2.612zm67.082 8.677c-.23 0-.461-.029-.693-.091-1.43-.38-2.28-1.844-1.9-3.271.704-2.637 1.063-5.367 1.063-8.117 0-1.477 1.199-2.746 2.676-2.746 1.48 0 2.679 1.126 2.679 2.603v.143c0 3.213-.417 6.409-1.24 9.492-.318 1.196-1.402 1.987-2.585 1.987zm-49.984 20.703c-.456 0-.914-.117-1.336-.358-2.78-1.6-5.345-3.56-7.622-5.824-1.045-1.043-1.047-2.736-.002-3.78 1.044-1.046 2.74-1.049 3.788-.006 1.946 1.937 4.135 3.611 6.514 4.98 1.28.735 1.72 2.37.98 3.65-.495.857-1.397 1.338-2.322 1.338zm25.882 3.37c-1.186 0-2.27-.785-2.59-1.981-.38-1.425.466-2.891 1.897-3.274 2.644-.707 5.188-1.762 7.567-3.138 1.279-.738 2.918-.304 3.66.973.743 1.276.308 2.912-.974 3.653-2.788 1.61-5.769 2.847-8.867 3.676-.232.062-.466.091-.693.091zM621.548 14.563c0 4.186-3.403 7.582-7.598 7.582s-7.598-3.396-7.598-7.582 3.403-7.581 7.598-7.581 7.598 3.395 7.598 7.581zM562.056 94.927L541.222 94.927M687.363 94.927L666.528 94.927M691.373 87.345c4.195 0 7.598 3.396 7.598 7.582s-3.403 7.582-7.598 7.582-7.595-3.396-7.595-7.582 3.4-7.582 7.595-7.582zM534.598 87.345c4.195 0 7.598 3.396 7.598 7.582s-3.403 7.582-7.598 7.582S527 99.113 527 94.927s3.403-7.582 7.598-7.582zM578.606 131.906L568.924 141.565M662.467 50.007L652.785 59.669M659.93 41.817c2.968-2.961 7.778-2.961 10.746 0 2.967 2.962 2.967 7.761 0 10.723-2.968 2.959-7.778 2.959-10.746 0-2.968-2.962-2.968-7.761 0-10.723zM558.868 140.879c2.968-2.961 7.778-2.961 10.746 0 2.967 2.961 2.967 7.76 0 10.722-2.968 2.96-7.778 2.96-10.746 0-2.968-2.961-2.968-7.76 0-10.722zM577.95 57.073L568.267 47.414M658.241 140.753L648.558 131.094M666.447 138.223c2.967 2.961 2.967 7.761 0 10.722-2.968 2.96-7.776 2.96-10.743 0-2.968-2.961-2.968-7.76 0-10.722 2.967-2.961 7.775-2.961 10.743 0zM568.957 37.38c2.968 2.96 2.968 7.76 0 10.722-2.967 2.958-7.775 2.958-10.743 0-2.967-2.962-2.967-7.761 0-10.723 2.968-2.961 7.776-2.961 10.743 0zM621.624 95.413c0 4.555-3.702 8.247-8.267 8.247-4.565 0-8.265-3.692-8.265-8.247s3.7-8.247 8.265-8.247 8.267 3.692 8.267 8.247zM810.29 49.847s-32.244 43.077-1.133 82.246c8.184 10.306 19.104 17.93 31.205 22.656 12.887 5.034 34.209 13.908 43.06 20.73"/>
        <path stroke="#FFF" stroke-linecap="round" stroke-linejoin="round" stroke-width="4" d="M822.649 45.147c3.606-5.454 4.268-12.058 2.387-17.867-5.946.346-11.679 3.409-15.285 8.864-3.6 5.454-4.265 12.058-2.384 17.864 5.946-.343 11.681-3.406 15.282-8.86zM815.397 82.492c5.665-3.097 9.247-8.622 10.22-14.661-5.415-2.543-11.88-2.582-17.544.514-5.66 3.097-9.243 8.622-10.214 14.662 5.414 2.545 11.876 2.582 17.538-.515zM818.507 112.864c4.202-4.981 5.612-11.46 4.406-17.456-5.944-.372-11.986 1.978-16.186 6.96-4.2 4.984-5.613 11.463-4.41 17.456 5.944.375 11.992-1.976 16.19-6.96zM835.008 132.749c.654-6.56-1.814-12.696-6.154-16.89-5.074 3.206-8.703 8.7-9.357 15.26-.65 6.557 1.816 12.69 6.154 16.884 5.073-3.2 8.708-8.697 9.357-15.254zM782.015 70.755c3.142 5.749 8.599 9.306 14.495 10.166 2.353-5.624 2.244-12.264-.899-18.013-3.142-5.746-8.598-9.3-14.495-10.16-2.353 5.62-2.243 12.264.9 18.007zM781.796 114.308c5.363 3.624 11.796 4.206 17.421 2.186-.427-6.102-3.489-11.947-8.85-15.571-5.36-3.622-11.794-4.204-17.42-2.187.425 6.105 3.49 11.953 8.85 15.572z"/>
        <path stroke="#FFF" stroke-linecap="round" stroke-linejoin="round" stroke-width="4" d="M809.313 154.818c6.397.492 12.299-2.212 16.26-6.786-3.258-5.122-8.7-8.702-15.098-9.193-6.397-.487-12.296 2.215-16.259 6.786 3.255 5.124 8.7 8.704 15.097 9.193zM865.863 145.62c-1.446-6.424-5.706-11.41-11.134-13.94-3.793 4.716-5.503 11.12-4.06 17.544 1.447 6.422 5.71 11.409 11.132 13.941 3.796-4.716 5.508-11.122 4.062-17.544zM842.598 172.436c6.324-1.11 11.416-5.198 14.185-10.616-4.361-4.165-10.485-6.29-16.811-5.18-6.324 1.113-11.413 5.2-14.182 10.619 4.361 4.165 10.485 6.29 16.808 5.177zM933.635 49.847s32.245 43.077 1.133 82.246c-8.184 10.306-19.104 17.93-31.205 22.656-12.887 5.034-34.209 13.908-43.06 20.73"/>
        <path stroke="#FFF" stroke-linecap="round" stroke-linejoin="round" stroke-width="4" d="M921.276 45.147c-3.606-5.454-4.268-12.058-2.387-17.867 5.946.346 11.679 3.409 15.285 8.864 3.6 5.454 4.265 12.058 2.384 17.864-5.946-.343-11.681-3.406-15.282-8.86zM928.528 82.492c-5.665-3.097-9.247-8.622-10.22-14.661 5.415-2.543 11.88-2.582 17.544.514 5.66 3.097 9.242 8.622 10.214 14.662-5.414 2.545-11.876 2.582-17.538-.515zM925.418 112.864c-4.202-4.981-5.612-11.46-4.406-17.456 5.944-.372 11.986 1.978 16.186 6.96 4.2 4.984 5.613 11.463 4.41 17.456-5.944.375-11.992-1.976-16.19-6.96zM908.917 132.749c-.654-6.56 1.813-12.696 6.154-16.89 5.074 3.206 8.703 8.7 9.357 15.26.649 6.557-1.816 12.69-6.154 16.884-5.073-3.2-8.708-8.697-9.357-15.254zM961.91 70.755c-3.143 5.749-8.599 9.306-14.495 10.166-2.353-5.624-2.244-12.264.899-18.013 3.142-5.746 8.598-9.3 14.495-10.16 2.353 5.62 2.243 12.264-.9 18.007zM962.129 114.308c-5.363 3.624-11.796 4.206-17.421 2.186.427-6.102 3.488-11.947 8.85-15.571 5.36-3.622 11.794-4.204 17.42-2.187-.425 6.105-3.49 11.953-8.85 15.572z"/>
        <path stroke="#FFF" stroke-linecap="round" stroke-linejoin="round" stroke-width="4" d="M934.612 154.818c-6.397.492-12.298-2.212-16.259-6.786 3.257-5.122 8.7-8.702 15.097-9.193 6.397-.487 12.296 2.215 16.259 6.786-3.254 5.124-8.7 8.704-15.097 9.193zM878.062 145.62c1.446-6.424 5.706-11.41 11.134-13.94 3.793 4.716 5.503 11.12 4.06 17.544-1.447 6.422-5.71 11.409-11.132 13.941-3.797-4.716-5.508-11.122-4.062-17.544zM901.327 172.436c-6.324-1.11-11.416-5.198-14.185-10.616 4.361-4.165 10.485-6.29 16.811-5.18 6.324 1.113 11.413 5.2 14.182 10.619-4.361 4.165-10.485 6.29-16.808 5.177zM1144.749 139.468h-13.675s-3.965 12.114-24.01 14.144c-4.683.476-8.294 4.303-8.294 8.996v.328h78.283v-.328c0-4.693-3.614-8.52-8.294-8.996-20.047-2.03-24.01-14.144-24.01-14.144zM1222.594 27.037c0-3.127-2.543-5.66-5.675-5.66h-158.015c-3.135 0-5.675 2.533-5.675 5.66v95.179h169.365V27.037z"/>
        <path stroke="#FFF" stroke-linecap="round" stroke-linejoin="round" stroke-width="4" d="M1053.229 122.217v15.236c0 3.128 2.54 5.663 5.675 5.663h158.015c3.132 0 5.675-2.535 5.675-5.663v-15.236H1053.23z"/>
        <path stroke="#FFF" stroke-linecap="round" stroke-linejoin="round" stroke-width="4" d="M1137.912 127.617c-7.163 0-7.163 10.52 0 10.52 7.16 0 7.16-10.52 0-10.52z"/>
        <mask id="6kgl95z7zf" fill="#fff">
            <use xlink:href="#uabknmz7de"/>
        </mask>
        <path stroke="#FFF" stroke-linecap="round" stroke-linejoin="round" stroke-width="4" d="M1104.943 113.03L1117.814 113.03 1117.814 81.83 1104.943 81.83zM1131.476 113.03L1144.35 113.03 1144.35 73.692 1131.476 73.692zM1158.009 113.032L1170.88 113.032 1170.88 63.058 1158.009 63.058zM1097.787 113.031L1178.034 113.031M1104.827 70.919L1125.784 56.728 1145.996 56.728 1167.625 41.123" mask="url(#6kgl95z7zf)"/>
        <path stroke="#FFF" stroke-linecap="round" stroke-linejoin="round" stroke-width="4" d="M1155.988 35.858L1170.129 35.858 1170.129 49.966M1459.782 91.097h-5.26c.875-3.22 1.352-6.6 1.352-10.093 0-21.248-17.26-38.47-38.553-38.47-17.236 0-31.828 11.287-36.76 26.855-4.023-2.576-8.805-4.076-13.94-4.076-14.269 0-25.84 11.544-25.84 25.784l.002.099c-15.073 1.177-26.94 13.746-26.94 29.088 0 16.12 13.097 29.19 29.252 29.19h116.687c16.155 0 29.253-13.07 29.253-29.19s-13.098-29.187-29.253-29.187z" mask="url(#6kgl95z7zf)"/>
        <path stroke="#FFF" stroke-linecap="round" stroke-linejoin="round" stroke-width="4" d="M1384.815 131.791L1418.063 131.791 1418.063 103.067 1384.815 103.067zM1412.716 103.065h-22.555v-9.033c0-6.216 5.05-11.252 11.277-11.252 6.23 0 11.278 5.036 11.278 11.252v9.033z" mask="url(#6kgl95z7zf)"/>
        <path stroke="#FFF" stroke-dasharray="2 4" stroke-linecap="round" stroke-linejoin="round" stroke-width="4" d="M1313.29 63.745L1335.935 85.699" mask="url(#6kgl95z7zf)"/>
        <path stroke="#FFF" stroke-linecap="round" stroke-linejoin="round" stroke-width="4" d="M1380.723 29.957c0 4.556-3.7 8.25-8.268 8.25-4.565 0-8.267-3.694-8.267-8.25 0-4.555 3.702-8.247 8.267-8.247 4.568 0 8.268 3.692 8.268 8.247zM1321.867 65.432c0 4.555-3.7 8.25-8.267 8.25-4.565 0-8.268-3.695-8.268-8.25s3.703-8.25 8.268-8.25c4.567 0 8.267 3.695 8.267 8.25z" mask="url(#6kgl95z7zf)"/>
        <path stroke="#FFF" stroke-dasharray="2 4" stroke-linecap="round" stroke-linejoin="round" stroke-width="4" d="M1491.251 63.012L1471.763 91.139" mask="url(#6kgl95z7zf)"/>
        <path stroke="#FFF" stroke-linecap="round" stroke-linejoin="round" stroke-width="4" d="M1496.907 65.432c0 4.555-3.703 8.25-8.268 8.25-4.565 0-8.267-3.695-8.267-8.25s3.702-8.25 8.267-8.25c4.565 0 8.268 3.695 8.268 8.25z" mask="url(#6kgl95z7zf)"/>
        <path stroke="#FFF" stroke-dasharray="2 4" stroke-linecap="round" stroke-linejoin="round" stroke-width="4" d="M1379.659 38.607L1390.611 52.371" mask="url(#6kgl95z7zf)"/>
        <g transform="translate(854 20)">
            <mask id="ybqwkzc8yh" fill="#fff">
                <use xlink:href="#m76ngwb3ug"/>
            </mask>
            <path stroke="#FFF" stroke-linecap="round" stroke-linejoin="round" stroke-width="4" d="M-12.964 43.025L43.618 43.025 43.618 -12.86 -12.964 -12.86z" mask="url(#ybqwkzc8yh)"/>
        </g>
        <g stroke="#FFF" stroke-linecap="round" stroke-linejoin="round" stroke-width="4">
            <path d="M30.54 15.084c-10.923 2.34-12.842 4.237-15.212 15.025C12.956 19.32 11.036 17.425.112 15.084c10.924-2.34 12.844-4.24 15.216-15.027 2.37 10.788 4.29 12.687 15.211 15.027" transform="translate(854 20)"/>
            <path d="M30.54 15.084c-10.923 2.34-12.842 4.237-15.212 15.025C12.956 19.32 11.036 17.425.112 15.084c10.924-2.34 12.844-4.24 15.216-15.027 2.37 10.788 4.29 12.687 15.211 15.027z" transform="translate(854 20)"/>
        </g>
        <g transform="translate(854 20)">
            <mask id="oocq7556sj" fill="#fff">
                <use xlink:href="#23b0cuzvli"/>
            </mask>
            <path stroke="#FFF" stroke-linecap="round" stroke-linejoin="round" stroke-width="4" d="M-12.964 43.025L43.618 43.025 43.618 -12.86 -12.964 -12.86z" mask="url(#oocq7556sj)"/>
        </g>
        <g stroke="#FFF" stroke-linecap="round" stroke-linejoin="round" stroke-width="4">
            <path d="M30.54 15.084c-10.923 2.34-12.842 4.237-15.212 15.025C12.956 19.32 11.036 17.425.112 15.084c10.924-2.34 12.844-4.24 15.216-15.027 2.37 10.788 4.29 12.687 15.211 15.027" transform="translate(854 20)"/>
            <path d="M30.54 15.084c-10.923 2.34-12.842 4.237-15.212 15.025C12.956 19.32 11.036 17.425.112 15.084c10.924-2.34 12.844-4.24 15.216-15.027 2.37 10.788 4.29 12.687 15.211 15.027z" transform="translate(854 20)"/>
        </g>
    </g>
</svg>
