<svg xmlns="http://www.w3.org/2000/svg" xmlns:xlink="http://www.w3.org/1999/xlink" width="801" height="801" viewBox="0 0 801 801">
    <defs>
        <path id="np8azlbw3a" d="M3.36.114C1.53.117.05 1.59.052 3.41c0 1.818 1.485 3.29 3.313 3.287 1.827 0 3.306-1.474 3.306-3.293C6.67 1.586 5.19.114 3.362.114H3.36z"/>
    </defs>
    <g fill="none" fill-rule="evenodd" opacity=".1">
        <g>
            <path stroke="#FFF" stroke-linecap="round" stroke-linejoin="round" stroke-width="2" d="M23.947 3.403s6.842 2.949 6.842 11.06" transform="translate(654 546)"/>
            <g transform="translate(654 546) translate(20.526)">
                <mask id="4ynhaqos9b" fill="#fff">
                    <use xlink:href="#np8azlbw3a"/>
                </mask>
                <path stroke="#FFF" stroke-linecap="round" stroke-linejoin="round" stroke-width="2" d="M-3.561 10.293L10.286 10.293 10.286 -3.482 -3.561 -3.482z" mask="url(#4ynhaqos9b)"/>
            </g>
            <g stroke="#FFF" stroke-linecap="round" stroke-linejoin="round" stroke-width="2">
                <path d="M6.733 3.42c0 1.83-1.492 3.315-3.337 3.315C1.551 6.738.053 5.257.053 3.426.05 1.596 1.544.112 3.391.11c1.846 0 3.34 1.482 3.342 3.312" transform="translate(654 546) translate(20.526)"/>
                <path d="M6.733 3.42c0 1.83-1.492 3.315-3.337 3.315C1.551 6.738.053 5.257.053 3.426.05 1.596 1.544.112 3.391.11c1.846 0 3.34 1.482 3.342 3.312zM14.283 21.991c1.48-4.15 4.599-8.008 8.431-10.215 3.817-2.197 8.612-2.692 12.895-1.766 2.723.59 5.33 2.031 6.755 4.479 1.455 2.5 1.822 5.546 1.767 8.388-.068 3.521-1.928 6.831-4.773 8.927-3.501 2.58-7.798 5.324-12.311 5.324 0 0 8.755 5.067 8.755 11.58 0 0 0 2.896-1.46 5.066 0 0-2.188 2.896-5.107 2.896 0 0-7.816 1.608-12.665-7.882M20.094 3.432s-6.567 2.895-6.567 10.856" transform="translate(654 546) translate(20.526)"/>
                <path d="M16.694 3.42c0 1.83 1.493 3.315 3.337 3.315 1.845.003 3.343-1.478 3.343-3.309.003-1.83-1.491-3.314-3.336-3.317-1.848 0-3.343 1.482-3.344 3.312" transform="translate(654 546) translate(20.526)"/>
            </g>
            <path stroke="#FFF" stroke-linecap="round" stroke-linejoin="round" stroke-width="2" d="M29.934 22.524c-1.484-4.113-4.611-7.938-8.454-10.125-3.827-2.178-8.635-2.669-12.93-1.75-2.73.584-5.346 2.013-6.774 4.438C.317 17.566-.05 20.585.006 23.402c.066 3.49 1.932 6.771 4.785 8.849 3.51 2.556 7.819 5.277 12.345 5.277 0 0-8.78 5.022-8.78 11.478 0 0 0 2.87 1.464 5.022 0 0 2.195 2.87 5.121 2.87 0 0 7.838 1.594 12.7-7.813" transform="translate(654 546)"/>
            <path stroke="#FFF" stroke-linecap="round" stroke-linejoin="round" stroke-width="2" d="M32.5 53.597h0c-2.834 0-5.132-2.507-5.132-5.599V18.36c0-3.092 2.298-5.599 5.132-5.599 2.833 0 5.132 2.507 5.132 5.6v29.637c0 3.092-2.299 5.599-5.132 5.599z" transform="translate(654 546)"/>
        </g>
        <g stroke="#FFF" stroke-linecap="round" stroke-linejoin="round" stroke-width="2">
            <path d="M34.5 0L4 52 65 52z" transform="translate(91 519)"/>
            <path stroke-dasharray="1 4" d="M34 15L17 44h34L34 15z" transform="translate(91 519)"/>
            <path d="M34 0L34 34.897 3 52M65 52L34 35" transform="translate(91 519)"/>
            <path d="M39 15c0 2.209-1.79 4-4 4s-4-1.791-4-4c0-2.21 1.79-4 4-4s4 1.79 4 4zM8 51c0 2.209-1.79 4-4 4s-4-1.791-4-4c0-2.21 1.79-4 4-4s4 1.79 4 4zM54 44c0 2.21-1.79 4-4.001 4C47.791 48 46 46.21 46 44c0-2.209 1.79-4 3.999-4C52.209 40 54 41.791 54 44z" transform="translate(91 519)"/>
        </g>
        <g stroke="#FFF" stroke-linecap="round" stroke-linejoin="round" stroke-width="2">
            <path d="M21 44L21 8 7 17.22 7 44M35 45L35 17.287 21 8 21 45z" transform="translate(402 95)"/>
            <path d="M9 18c0 1.657-1.343 3-3 3s-3-1.343-3-3 1.343-3 3-3 3 1.343 3 3zM50 45L50 2 36 17.028 36 45z" transform="translate(402 95)"/>
            <path d="M38 18c0 1.657-1.343 3-3 3s-3-1.343-3-3 1.343-3 3-3 3 1.343 3 3zM24 9c0 1.657-1.344 3-3 3-1.657 0-3-1.343-3-3s1.343-3 3-3c1.656 0 3 1.343 3 3zM53 3c0 1.657-1.344 3-3 3-1.657 0-3-1.343-3-3s1.343-3 3-3c1.656 0 3 1.343 3 3zM0 45.5L56 45.5" transform="translate(402 95)"/>
        </g>
        <g stroke="#FFF" stroke-linecap="round" stroke-linejoin="round" stroke-width="2">
            <path d="M49 36L10 36 16.686 24 42.315 24zM39 18L19 18 29 0zM58 53L0 53 6.964 40 51.036 40z" transform="translate(672 50)"/>
        </g>
        <g stroke="#FFF" stroke-linecap="round" stroke-linejoin="round" stroke-width="2">
            <path d="M61 2.02C61 .905 60.084 0 58.956 0H2.044C.915 0 0 .904 0 2.02V36h61V2.02z" transform="translate(162 141)"/>
            <path d="M19 32L23 32 23 21 19 21zM28 32L32 32 32 18 28 18zM38 32L42 32 42 14 38 14zM32.445 42h-4.89s-1.419 4.13-8.589 4.822C17.292 46.984 16 48.288 16 49.888V50h28v-.112c0-1.6-1.293-2.904-2.966-3.066C33.863 46.129 32.445 42 32.445 42z" transform="translate(162 141)"/>
            <path d="M0 35v5.832C0 42.03.915 43 2.044 43h56.912C60.084 43 61 42.03 61 40.832V35H0z" transform="translate(162 141)"/>
            <path d="M30 37c-2.667 0-2.667 3 0 3s2.667-3 0-3zM16 31.5L45 31.5M19 17L26.676 12.237 34.078 12.237 42 7" transform="translate(162 141)"/>
            <path d="M37 5L42 5 42 10" transform="translate(162 141)"/>
        </g>
        <g stroke="#FFF" stroke-linecap="round" stroke-linejoin="round" stroke-width="2">
            <path d="M61 2.02C61 .905 60.084 0 58.956 0H2.044C.915 0 0 .904 0 2.02V36h61V2.02z" transform="translate(740 687)"/>
            <path d="M19 32L23 32 23 21 19 21zM28 32L32 32 32 18 28 18zM38 32L42 32 42 14 38 14zM32.445 42h-4.89s-1.419 4.13-8.589 4.822C17.292 46.984 16 48.288 16 49.888V50h28v-.112c0-1.6-1.293-2.904-2.966-3.066C33.863 46.129 32.445 42 32.445 42z" transform="translate(740 687)"/>
            <path d="M0 35v5.832C0 42.03.915 43 2.044 43h56.912C60.084 43 61 42.03 61 40.832V35H0z" transform="translate(740 687)"/>
            <path d="M30 37c-2.667 0-2.667 3 0 3s2.667-3 0-3zM16 31.5L45 31.5M19 17L26.676 12.237 34.078 12.237 42 7" transform="translate(740 687)"/>
            <path d="M37 5L42 5 42 10" transform="translate(740 687)"/>
        </g>
        <g stroke="#FFF" stroke-linecap="round" stroke-linejoin="round" stroke-width="2">
            <path d="M54.647 25.256h-1.861c.31-1.144.478-2.345.478-3.586C53.264 14.12 47.156 8 39.62 8c-6.1 0-11.263 4.01-13.009 9.543-1.424-.916-3.116-1.449-4.933-1.449-5.05 0-9.145 4.102-9.145 9.162v.035C7.2 25.71 3 30.176 3 35.628 3 41.356 7.635 46 13.352 46h41.295C60.364 46 65 41.356 65 35.628s-4.636-10.372-10.353-10.372z" transform="translate(0 755)"/>
            <path d="M28 39L40 39 40 29 28 29z" transform="translate(0 755)"/>
            <path d="M38 30h-8v-3.562C30 23.986 31.791 22 34 22c2.21 0 4 1.986 4 4.438V30zM3 15L11 23M6 15c0 1.656-1.343 3-3 3-1.656 0-3-1.344-3-3s1.344-3 3-3c1.657 0 3 1.344 3 3zM66 15L59 25M68 15c0 1.656-1.344 3-3 3s-3-1.344-3-3 1.344-3 3-3 3 1.344 3 3zM26 3c0 1.656-1.343 3-3 3-1.656 0-3-1.344-3-3 0-1.657 1.344-3 3-3 1.657 0 3 1.343 3 3zM26 6L30 11" transform="translate(0 755)"/>
        </g>
        <g stroke="#FFF" stroke-linecap="round" stroke-linejoin="round" stroke-width="2">
            <path d="M32.642 8.766C34.577 6.357 34.64 0 34.64 0H21.36s.064 6.357 1.998 8.766C16.227 11.59 11 20.536 11 28.982 11 39.18 18.612 43 28 43s17-3.821 17-14.018c0-8.446-5.227-17.393-12.358-20.216z" transform="translate(48 261)"/>
            <path d="M49.958 29.081l-.634-6.786c-.1-1.076.625-2.052 1.677-2.256 1.119-.218 2.203.509 2.434 1.632L55 29.246l-1.813 10.411L45.198 50H36" transform="translate(48 261)"/>
            <path d="M36 51l.027-8.27c.005-1.36.462-2.68 1.298-3.753l.315-.405c1.49-1.91 3.559-3.287 5.898-3.924l3.785-4.856c.697-.894 1.989-1.056 2.884-.36.895.696 1.057 1.985.36 2.879l-4.909 6.298" transform="translate(48 261)"/>
            <path d="M47 50.031L46.987 55 34 54.969 34.013 50zM5.042 29.081l.635-6.786c.1-1.076-.626-2.052-1.678-2.256-1.119-.218-2.203.509-2.434 1.632L0 29.246l1.812 10.411L9.802 50H19" transform="translate(48 261)"/>
            <path d="M19 51l-.027-8.27c-.004-1.36-.46-2.68-1.297-3.753l-.315-.405c-1.49-1.91-3.559-3.287-5.9-3.924l-3.784-4.856c-.697-.894-1.988-1.056-2.884-.36-.896.696-1.057 1.985-.36 2.879l4.91 6.298" transform="translate(48 261)"/>
            <path d="M8 50.031L8.013 55 21 54.969 20.987 50zM23 30h6.702C30.972 30 32 28.992 32 27.75s-1.029-2.25-2.298-2.25h-4.404c-1.27 0-2.298-1.008-2.298-2.25 0-1.243 1.029-2.25 2.298-2.25H32M27.5 18L27.5 32" transform="translate(48 261)"/>
        </g>
        <g stroke="#FFF" stroke-linecap="round" stroke-linejoin="round" stroke-width="2">
            <path d="M14.18 11s-11.384 15.087-.4 28.805c2.89 3.61 6.745 6.28 11.017 7.935C29.347 49.503 36.875 52.61 40 55" transform="translate(719 347)"/>
            <path d="M17.789 9.016c1.28-1.836 1.515-4.06.847-6.016-2.11.116-4.146 1.148-5.426 2.985-1.279 1.836-1.514 4.06-.847 6.015 2.111-.116 4.148-1.147 5.426-2.984zM15.318 22.12c2.041-1.147 3.332-3.194 3.682-5.43-1.95-.942-4.28-.957-6.32.19S9.35 20.073 9 22.31c1.95.943 4.279.957 6.318-.19zM16.2 31.714c1.57-1.627 2.095-3.743 1.645-5.702-2.22-.121-4.476.647-6.044 2.274-1.569 1.628-2.096 3.744-1.647 5.701 2.22.123 4.478-.645 6.046-2.273zM21.96 39.78c.25-2.245-.692-4.345-2.35-5.78-1.936 1.097-3.321 2.977-3.57 5.222-.248 2.244.693 4.343 2.349 5.778 1.936-1.095 3.324-2.976 3.571-5.22zM2.949 17.392c1.179 2.04 3.227 3.303 5.44 3.608.883-1.996.842-4.353-.338-6.394-1.179-2.039-3.227-3.3-5.44-3.606-.883 1.995-.842 4.353.338 6.392zM3.032 32.835c1.837 1.265 4.04 1.468 5.968.763-.146-2.13-1.195-4.169-3.032-5.434C4.13 26.9 1.928 26.697 0 27.401c.146 2.13 1.195 4.171 3.032 5.434z" transform="translate(719 347)"/>
            <path d="M13.296 46.979c2.244.183 4.315-.825 5.704-2.53-1.143-1.91-3.052-3.245-5.296-3.428-2.244-.181-4.314.826-5.704 2.53 1.142 1.91 3.052 3.245 5.296 3.428zM32.811 44.87c-.535-2.244-2.112-3.986-4.12-4.87-1.404 1.648-2.037 3.885-1.503 6.13.536 2.243 2.113 3.985 4.12 4.87 1.405-1.648 2.038-3.886 1.503-6.13z" transform="translate(719 347)"/>
            <path d="M24.966 53.893c2.244-.407 4.051-1.904 5.034-3.889-1.548-1.526-3.721-2.304-5.967-1.897-2.244.408-4.05 1.905-5.033 3.89 1.548 1.525 3.721 2.303 5.966 1.896zM56.82 11s11.384 15.087.4 28.805c-2.89 3.61-6.745 6.28-11.017 7.935C41.653 49.503 34.125 52.61 31 55" transform="translate(719 347)"/>
            <path d="M52.211 9.016c-1.28-1.836-1.515-4.06-.847-6.016 2.11.116 4.146 1.148 5.426 2.985 1.279 1.836 1.514 4.06.847 6.015-2.111-.116-4.148-1.147-5.426-2.984zM55.682 22.12C53.64 20.973 52.35 18.926 52 16.69c1.95-.942 4.28-.957 6.32.19s3.33 3.193 3.68 5.43c-1.95.943-4.279.957-6.318-.19zM53.8 31.714c-1.57-1.627-2.095-3.743-1.645-5.702 2.22-.121 4.476.647 6.044 2.274 1.569 1.628 2.096 3.744 1.647 5.701-2.22.123-4.478-.645-6.046-2.273zM48.04 39.78c-.25-2.245.692-4.345 2.35-5.78 1.936 1.097 3.321 2.977 3.57 5.222.248 2.244-.693 4.343-2.349 5.778-1.936-1.095-3.324-2.976-3.571-5.22zM68.051 17.392c-1.179 2.04-3.227 3.303-5.44 3.608-.883-1.996-.842-4.353.338-6.394 1.179-2.039 3.227-3.3 5.44-3.606.883 1.995.842 4.353-.338 6.392zM66.968 32.835c-1.837 1.265-4.04 1.468-5.968.763.146-2.13 1.195-4.169 3.032-5.434 1.837-1.264 4.04-1.467 5.968-.763-.146 2.13-1.195 4.171-3.032 5.434z" transform="translate(719 347)"/>
            <path d="M57.704 46.979c-2.244.183-4.315-.825-5.704-2.53 1.143-1.91 3.052-3.245 5.296-3.428 2.244-.181 4.314.826 5.704 2.53-1.142 1.91-3.052 3.245-5.296 3.428zM37.189 44.87c.535-2.244 2.112-3.986 4.12-4.87 1.404 1.648 2.037 3.885 1.503 6.13-.536 2.243-2.113 3.985-4.12 4.87-1.405-1.648-2.038-3.886-1.503-6.13zM46.034 53.893c-2.244-.407-4.051-1.904-5.034-3.889 1.548-1.526 3.721-2.304 5.967-1.897 2.244.408 4.05 1.905 5.033 3.89-1.548 1.525-3.721 2.303-5.966 1.896zM40 5.5c-3.948.857-4.642 1.551-5.5 5.5-.857-3.949-1.55-4.643-5.5-5.5 3.95-.856 4.643-1.551 5.5-5.5.858 3.949 1.552 4.644 5.5 5.5z" transform="translate(719 347)"/>
        </g>
        <g stroke="#FFF" stroke-linecap="round" stroke-linejoin="round" stroke-width="2">
            <path d="M53 44.25L53 14.75 27.5 0 2 14.75 2 44.25 27.5 59z" transform="translate(590 211)"/>
            <path d="M45 40.5L45 19.5 27.499 9 10 19.5 10 40.5 27.499 51z" transform="translate(590 211)"/>
            <path d="M38 34.5L38 23.5 28.499 18 19 23.5 19 34.5 28.499 40z" transform="translate(590 211)"/>
            <path d="M10.39 18.851L3 45 28.351 41.253 46 40.511 37.669 24.452 28.195 9z" transform="translate(590 211)"/>
            <path d="M41 24c0 1.657-1.344 3-3 3-1.657 0-3-1.343-3-3s1.343-3 3-3c1.656 0 3 1.343 3 3zM6 44c0 1.657-1.343 3-3 3-1.656 0-3-1.343-3-3s1.344-3 3-3c1.657 0 3 1.343 3 3zM31 41c0 1.657-1.344 3-3 3-1.657 0-3-1.343-3-3s1.343-3 3-3c1.656 0 3 1.343 3 3zM31 9c0 1.657-1.343 3-3 3-1.656 0-3-1.343-3-3s1.344-3 3-3c1.657 0 3 1.343 3 3zM49 40c0 1.657-1.344 3-3 3-1.657 0-3-1.343-3-3s1.343-3 3-3c1.656 0 3 1.343 3 3zM14 18c0 1.657-1.343 3-3 3-1.656 0-3-1.343-3-3s1.344-3 3-3c1.657 0 3 1.343 3 3z" transform="translate(590 211)"/>
        </g>
        <g stroke="#FFF" stroke-linecap="round" stroke-linejoin="round" stroke-width="2">
            <path d="M46.093 12l-2.653 5.3-38.627-.21c-2.515-.013-4.72 1.808-4.81 4.187-.093 2.46 1.98 4.492 4.565 4.505L44.636 26c1.088.005 2.077-.598 2.52-1.539L53 12.038 46.093 12z" transform="translate(76)"/>
            <path d="M16 16.918L29.776.773 36 0 30.821 17zM4.495 32.456c-.894 4.011-.605 8.321 1.094 12.411C10.06 55.642 22.6 60.825 33.597 56.443 44.593 52.062 49.883 39.775 45.411 29" transform="translate(76)"/>
            <path d="M37.965 31.728c-2.91-7.161-11.077-10.605-18.237-7.693-7.161 2.912-10.605 11.076-7.693 18.237 2.912 7.16 11.077 10.605 18.238 7.693 7.16-2.911 10.604-11.077 7.692-18.237zM3 30.944L6.033 29 8 32" transform="translate(76)"/>
            <path d="M21 43h7.447C29.857 43 31 41.881 31 40.5c0-1.38-1.143-2.5-2.553-2.5h-4.894C22.143 38 21 36.88 21 35.5c0-1.381 1.143-2.5 2.553-2.5H31M26.5 30L26.5 44" transform="translate(76)"/>
        </g>
    </g>
</svg>
