<svg xmlns="http://www.w3.org/2000/svg" xmlns:xlink="http://www.w3.org/1999/xlink" width="30" height="30" viewBox="0 0 30 30">
    <defs>
        <path id="prefix__a" d="M0.25 0L10.25 0 10.25 18 0.25 18z"/>
    </defs>
    <g fill="none" fill-rule="evenodd">
        <g transform="rotate(-90 13 7)">
            <mask id="prefix__b" fill="#fff">
                <use xlink:href="#prefix__a"/>
            </mask>
            <path fill="#343C55" stroke="#343C55" stroke-linecap="round" stroke-linejoin="round" stroke-width=".5" d="M8.97 17c-.127 0-.255-.05-.353-.146l-7.47-7.486c-.196-.194-.196-.511 0-.707l7.5-7.514c.196-.197.51-.197.707 0 .195.196.195.512 0 .706L2.206 9.015l7.118 7.13c.195.197.195.512 0 .709-.098.097-.226.146-.354.146" mask="url(#prefix__b)"/>
        </g>
        <path d="M0 0H30V30H0z"/>
    </g>
</svg>
