<svg xmlns="http://www.w3.org/2000/svg" xmlns:xlink="http://www.w3.org/1999/xlink" width="32" height="32" viewBox="0 0 32 32">
    <defs>
        <path id="prefix__a" d="M0 0L24 0 24 24 0 24z"/>
    </defs>
    <g fill="none" fill-rule="evenodd">
        <path d="M0 0H32V32H0z" opacity=".503"/>
        <g transform="translate(4 4)">
            <mask id="prefix__b" fill="#fff">
                <use xlink:href="#prefix__a"/>
            </mask>
            <path fill="#FEFEFE" fill-opacity=".2" d="M24 12c0 6.627-5.373 12-12 12S0 18.627 0 12C0 5.372 5.373 0 12 0s12 5.372 12 12" mask="url(#prefix__b)"/>
            <path fill="#FEFEFE" d="M8.68 9.15c.352.012.713.088.997.306.504.367.717 1.023.705 1.627-.005 1.047.001 2.096-.003 3.141-.384.005-.767.005-1.149.002-.018-1.047.022-2.097-.021-3.143.001-.345-.182-.691-.53-.792-.007-.38-.003-.76 0-1.141M6.075 11.82c-.582.207-.61 1.148-.044 1.394.47.25 1.12-.132 1.074-.678.051-.533-.552-.94-1.03-.716M4.5 14.217c.018-1.651-.018-3.303.02-4.954.385.012.767.007 1.148.012-.013.616.006 1.234-.015 1.85.561-.563 1.553-.54 2.106.02.765.737.738 2.14-.08 2.826-.562.486-1.532.513-2.017-.097l.006.35c-.388.004-.78.007-1.168-.007M12.897 11.8c-.606.168-.687 1.12-.128 1.398.467.279 1.163-.098 1.1-.659.063-.51-.503-.92-.972-.74m-.444-.99c.723-.205 1.58-.095 2.137.44.746.696.69 2.061-.138 2.672-.973.736-2.698.496-3.17-.716-.401-.95.15-2.152 1.17-2.397M17.359 11.788c-.573.198-.626 1.112-.09 1.382.463.262 1.138-.078 1.113-.635.063-.53-.539-.973-1.023-.747m-.906-.798c.56-.396 1.43-.396 1.888.16l-.001-.319c.385-.003.772-.003 1.16 0 0 1.092.002 2.183 0 3.273-.005.59-.214 1.221-.704 1.584-.426.323-.987.359-1.502.336.002-.357 0-.711-.001-1.068.273-.012.588 0 .8-.2.238-.23.238-.581.26-.889-.577.548-1.548.564-2.13.014-.807-.762-.684-2.26.23-2.891"/>
        </g>
    </g>
</svg>
