<svg xmlns="http://www.w3.org/2000/svg" xmlns:xlink="http://www.w3.org/1999/xlink" width="32" height="32" viewBox="0 0 32 32">
    <defs>
        <path id="prefix__a" d="M0 0L23.999 0 23.999 24 0 24z"/>
    </defs>
    <g fill="none" fill-rule="evenodd">
        <path d="M0 0H32V32H0z" opacity=".503"/>
        <g transform="translate(4 4)">
            <mask id="prefix__b" fill="#fff">
                <use xlink:href="#prefix__a"/>
            </mask>
            <path fill="#FEFEFE" fill-opacity=".2" d="M24 12c0 6.627-5.372 12-12 12S0 18.627 0 12C0 5.372 5.371 0 12 0s12 5.372 12 12" mask="url(#prefix__b)"/>
            <path fill="#FFF" d="M12.93 18v-5.473h1.837l.275-2.133H12.93V9.032c0-.62.17-1.04 1.056-1.04h1.129V6.084C14.92 6.06 14.25 6 13.47 6c-1.63 0-2.744.993-2.744 2.82v1.574H8.884v2.133h1.842V18h2.204z"/>
        </g>
    </g>
</svg>
