<svg xmlns="http://www.w3.org/2000/svg" xmlns:xlink="http://www.w3.org/1999/xlink" width="20" height="20" viewBox="0 0 20 20">
    <defs>
        <path id="prefix__a" d="M0 0H20V20H0z"/>
    </defs>
    <g fill="none" fill-rule="evenodd">
        <mask id="prefix__b" fill="#fff">
            <use xlink:href="#prefix__a"/>
        </mask>
        <g fill="#4E7CFF" fill-rule="nonzero" mask="url(#prefix__b)">
            <path d="M8.238.095C3.741.095.095 3.741.095 8.238c0 4.497 3.646 8.143 8.143 8.143 4.497 0 8.143-3.646 8.143-8.143 0-4.497-3.646-8.143-8.143-8.143zm0 1.81c3.498 0 6.333 2.835 6.333 6.333s-2.835 6.333-6.333 6.333-6.333-2.835-6.333-6.333S4.74 1.905 8.238 1.905z"/>
            <path d="M13.027 13.027c.326-.326.84-.351 1.194-.075l.086.075 4.966 4.97c.353.353.353.926 0 1.28-.327.325-.84.35-1.195.074l-.085-.075-4.966-4.97c-.354-.353-.353-.926 0-1.28z"/>
        </g>
    </g>
</svg>
